<mxfile host="Electron" modified="2023-11-24T22:59:20.610Z" agent="Mozilla/5.0 (Windows NT 10.0; Win64; x64) AppleWebKit/537.36 (KHTML, like Gecko) draw.io/22.1.2 Chrome/114.0.5735.289 Electron/25.9.4 Safari/537.36" etag="DklL1bvMeQRQsmO2EZPK" version="22.1.2" type="device" pages="2">
  <diagram name="Pagina-1" id="6jStNF-pMENzdW7jOkbE">
    <mxGraphModel dx="2758" dy="516" grid="1" gridSize="10" guides="1" tooltips="1" connect="1" arrows="1" fold="1" page="1" pageScale="1" pageWidth="827" pageHeight="1169" math="0" shadow="0">
      <root>
        <mxCell id="0" />
        <mxCell id="1" parent="0" />
        <mxCell id="Ioz2Z54Z-l2nRbUJ65sq-1" value="Giocatore" style="rounded=0;whiteSpace=wrap;html=1;" parent="1" vertex="1">
          <mxGeometry x="-1391" y="310" width="60" height="20" as="geometry" />
        </mxCell>
        <mxCell id="Ioz2Z54Z-l2nRbUJ65sq-2" value="&lt;font style=&quot;font-size: 11px;&quot;&gt;Nome&lt;/font&gt;" style="ellipse;whiteSpace=wrap;html=1;" parent="1" vertex="1">
          <mxGeometry x="-1501" y="310" width="50" height="20" as="geometry" />
        </mxCell>
        <mxCell id="Ioz2Z54Z-l2nRbUJ65sq-3" value="&lt;font style=&quot;font-size: 11px;&quot;&gt;Cognome&lt;/font&gt;" style="ellipse;whiteSpace=wrap;html=1;" parent="1" vertex="1">
          <mxGeometry x="-1506" y="280" width="60" height="20" as="geometry" />
        </mxCell>
        <mxCell id="Ioz2Z54Z-l2nRbUJ65sq-4" value="&lt;font style=&quot;font-size: 10px;&quot;&gt;Data di nascita&lt;/font&gt;" style="ellipse;whiteSpace=wrap;html=1;" parent="1" vertex="1">
          <mxGeometry x="-1486" y="257.5" width="80" height="22.5" as="geometry" />
        </mxCell>
        <mxCell id="Ioz2Z54Z-l2nRbUJ65sq-5" value="Piede" style="ellipse;whiteSpace=wrap;html=1;" parent="1" vertex="1">
          <mxGeometry x="-1426" y="235" width="60" height="15" as="geometry" />
        </mxCell>
        <mxCell id="Ioz2Z54Z-l2nRbUJ65sq-8" value="" style="endArrow=none;html=1;rounded=0;exitX=1;exitY=0.5;exitDx=0;exitDy=0;entryX=0;entryY=0.5;entryDx=0;entryDy=0;" parent="1" source="Ioz2Z54Z-l2nRbUJ65sq-2" target="Ioz2Z54Z-l2nRbUJ65sq-1" edge="1">
          <mxGeometry width="50" height="50" relative="1" as="geometry">
            <mxPoint x="-1441" y="367.5" as="sourcePoint" />
            <mxPoint x="-1391" y="317.5" as="targetPoint" />
          </mxGeometry>
        </mxCell>
        <mxCell id="Ioz2Z54Z-l2nRbUJ65sq-9" value="" style="endArrow=none;html=1;rounded=0;entryX=1;entryY=1;entryDx=0;entryDy=0;exitX=0;exitY=0;exitDx=0;exitDy=0;" parent="1" source="Ioz2Z54Z-l2nRbUJ65sq-1" target="Ioz2Z54Z-l2nRbUJ65sq-3" edge="1">
          <mxGeometry width="50" height="50" relative="1" as="geometry">
            <mxPoint x="-1381" y="310" as="sourcePoint" />
            <mxPoint x="-1331" y="260" as="targetPoint" />
          </mxGeometry>
        </mxCell>
        <mxCell id="Ioz2Z54Z-l2nRbUJ65sq-10" value="" style="endArrow=none;html=1;rounded=0;entryX=0.5;entryY=1;entryDx=0;entryDy=0;exitX=0.25;exitY=0;exitDx=0;exitDy=0;" parent="1" source="Ioz2Z54Z-l2nRbUJ65sq-1" target="Ioz2Z54Z-l2nRbUJ65sq-4" edge="1">
          <mxGeometry width="50" height="50" relative="1" as="geometry">
            <mxPoint x="-1361" y="310" as="sourcePoint" />
            <mxPoint x="-1311" y="260" as="targetPoint" />
          </mxGeometry>
        </mxCell>
        <mxCell id="Ioz2Z54Z-l2nRbUJ65sq-11" value="" style="endArrow=none;html=1;rounded=0;entryX=0.5;entryY=1;entryDx=0;entryDy=0;exitX=0.5;exitY=0;exitDx=0;exitDy=0;" parent="1" source="Ioz2Z54Z-l2nRbUJ65sq-1" target="Ioz2Z54Z-l2nRbUJ65sq-5" edge="1">
          <mxGeometry width="50" height="50" relative="1" as="geometry">
            <mxPoint x="-1331" y="310" as="sourcePoint" />
            <mxPoint x="-1291" y="260" as="targetPoint" />
          </mxGeometry>
        </mxCell>
        <mxCell id="Ioz2Z54Z-l2nRbUJ65sq-15" value="" style="endArrow=none;html=1;rounded=0;entryX=0.5;entryY=1;entryDx=0;entryDy=0;" parent="1" source="QqaYTEEhGUOZ2rIBJ_UD-1" target="Ioz2Z54Z-l2nRbUJ65sq-1" edge="1">
          <mxGeometry width="50" height="50" relative="1" as="geometry">
            <mxPoint x="-1361" y="360" as="sourcePoint" />
            <mxPoint x="-1361" y="340" as="targetPoint" />
            <Array as="points" />
          </mxGeometry>
        </mxCell>
        <mxCell id="Ioz2Z54Z-l2nRbUJ65sq-20" value="" style="endArrow=none;html=1;rounded=0;exitX=0.5;exitY=0;exitDx=0;exitDy=0;" parent="1" source="Ioz2Z54Z-l2nRbUJ65sq-4" target="Ioz2Z54Z-l2nRbUJ65sq-21" edge="1">
          <mxGeometry width="50" height="50" relative="1" as="geometry">
            <mxPoint x="-1411" y="250" as="sourcePoint" />
            <mxPoint x="-1441" y="230" as="targetPoint" />
          </mxGeometry>
        </mxCell>
        <mxCell id="Ioz2Z54Z-l2nRbUJ65sq-21" value="&lt;font style=&quot;font-size: 11px;&quot;&gt;Giorno&lt;/font&gt;" style="ellipse;whiteSpace=wrap;html=1;" parent="1" vertex="1">
          <mxGeometry x="-1521" y="230" width="40" height="20" as="geometry" />
        </mxCell>
        <mxCell id="Ioz2Z54Z-l2nRbUJ65sq-22" value="" style="endArrow=none;html=1;rounded=0;exitX=0.5;exitY=0;exitDx=0;exitDy=0;" parent="1" source="Ioz2Z54Z-l2nRbUJ65sq-4" target="Ioz2Z54Z-l2nRbUJ65sq-23" edge="1">
          <mxGeometry width="50" height="50" relative="1" as="geometry">
            <mxPoint x="-1421" y="250" as="sourcePoint" />
            <mxPoint x="-1451" y="220" as="targetPoint" />
          </mxGeometry>
        </mxCell>
        <mxCell id="Ioz2Z54Z-l2nRbUJ65sq-23" value="&lt;font style=&quot;font-size: 11px;&quot;&gt;Mese&lt;/font&gt;" style="ellipse;whiteSpace=wrap;html=1;" parent="1" vertex="1">
          <mxGeometry x="-1501" y="210" width="40" height="20" as="geometry" />
        </mxCell>
        <mxCell id="Ioz2Z54Z-l2nRbUJ65sq-24" value="" style="endArrow=none;html=1;rounded=0;exitX=0.5;exitY=0;exitDx=0;exitDy=0;" parent="1" source="Ioz2Z54Z-l2nRbUJ65sq-4" target="Ioz2Z54Z-l2nRbUJ65sq-25" edge="1">
          <mxGeometry width="50" height="50" relative="1" as="geometry">
            <mxPoint x="-1411" y="250" as="sourcePoint" />
            <mxPoint x="-1411" y="220" as="targetPoint" />
          </mxGeometry>
        </mxCell>
        <mxCell id="Ioz2Z54Z-l2nRbUJ65sq-25" value="&lt;font style=&quot;font-size: 11px;&quot;&gt;Anno&lt;/font&gt;" style="ellipse;whiteSpace=wrap;html=1;" parent="1" vertex="1">
          <mxGeometry x="-1461" y="215" width="35" height="20" as="geometry" />
        </mxCell>
        <mxCell id="Ioz2Z54Z-l2nRbUJ65sq-36" value="&lt;font style=&quot;font-size: 11px;&quot;&gt;Nome&lt;/font&gt;" style="ellipse;whiteSpace=wrap;html=1;" parent="1" vertex="1">
          <mxGeometry x="-1271" y="212.5" width="65" height="20" as="geometry" />
        </mxCell>
        <mxCell id="Ioz2Z54Z-l2nRbUJ65sq-38" value="&lt;font style=&quot;font-size: 11px;&quot;&gt;NazionalitÃ &lt;/font&gt;" style="ellipse;whiteSpace=wrap;html=1;" parent="1" vertex="1">
          <mxGeometry x="-1271" y="180" width="70" height="20" as="geometry" />
        </mxCell>
        <mxCell id="Ioz2Z54Z-l2nRbUJ65sq-49" value="Militanza" style="ellipse;shape=doubleEllipse;whiteSpace=wrap;html=1;" parent="1" vertex="1">
          <mxGeometry x="-1151" y="260" width="80" height="30" as="geometry" />
        </mxCell>
        <mxCell id="Ioz2Z54Z-l2nRbUJ65sq-50" value="" style="endArrow=none;html=1;rounded=0;entryX=0;entryY=0.5;entryDx=0;entryDy=0;exitX=1;exitY=0.5;exitDx=0;exitDy=0;" parent="1" source="Ioz2Z54Z-l2nRbUJ65sq-64" target="Ioz2Z54Z-l2nRbUJ65sq-49" edge="1">
          <mxGeometry width="50" height="50" relative="1" as="geometry">
            <mxPoint x="-1111" y="310" as="sourcePoint" />
            <mxPoint x="-1231" y="320" as="targetPoint" />
            <Array as="points" />
          </mxGeometry>
        </mxCell>
        <mxCell id="Ioz2Z54Z-l2nRbUJ65sq-51" value="" style="endArrow=none;html=1;rounded=0;exitX=0;exitY=0;exitDx=0;exitDy=0;" parent="1" source="Ioz2Z54Z-l2nRbUJ65sq-49" target="Ioz2Z54Z-l2nRbUJ65sq-52" edge="1">
          <mxGeometry width="50" height="50" relative="1" as="geometry">
            <mxPoint x="-1121" y="260" as="sourcePoint" />
            <mxPoint x="-1151" y="240" as="targetPoint" />
          </mxGeometry>
        </mxCell>
        <mxCell id="Ioz2Z54Z-l2nRbUJ65sq-52" value="Squadra" style="ellipse;whiteSpace=wrap;html=1;" parent="1" vertex="1">
          <mxGeometry x="-1201" y="230" width="60" height="20" as="geometry" />
        </mxCell>
        <mxCell id="Ioz2Z54Z-l2nRbUJ65sq-53" value="" style="endArrow=none;html=1;rounded=0;exitX=0.5;exitY=0;exitDx=0;exitDy=0;" parent="1" source="Ioz2Z54Z-l2nRbUJ65sq-49" target="Ioz2Z54Z-l2nRbUJ65sq-54" edge="1">
          <mxGeometry width="50" height="50" relative="1" as="geometry">
            <mxPoint x="-1121" y="257.5" as="sourcePoint" />
            <mxPoint x="-1111" y="240" as="targetPoint" />
          </mxGeometry>
        </mxCell>
        <mxCell id="Ioz2Z54Z-l2nRbUJ65sq-54" value="Periodo" style="ellipse;whiteSpace=wrap;html=1;" parent="1" vertex="1">
          <mxGeometry x="-1141" y="220" width="60" height="20" as="geometry" />
        </mxCell>
        <mxCell id="Ioz2Z54Z-l2nRbUJ65sq-55" value="" style="endArrow=none;html=1;rounded=0;exitX=0.5;exitY=0;exitDx=0;exitDy=0;" parent="1" source="Ioz2Z54Z-l2nRbUJ65sq-54" target="Ioz2Z54Z-l2nRbUJ65sq-56" edge="1">
          <mxGeometry width="50" height="50" relative="1" as="geometry">
            <mxPoint x="-1121" y="220" as="sourcePoint" />
            <mxPoint x="-1131" y="200" as="targetPoint" />
          </mxGeometry>
        </mxCell>
        <mxCell id="Ioz2Z54Z-l2nRbUJ65sq-56" value="&lt;font style=&quot;font-size: 11px;&quot;&gt;Inizio&lt;/font&gt;" style="ellipse;whiteSpace=wrap;html=1;" parent="1" vertex="1">
          <mxGeometry x="-1161" y="190" width="40" height="20" as="geometry" />
        </mxCell>
        <mxCell id="Ioz2Z54Z-l2nRbUJ65sq-57" value="" style="endArrow=none;html=1;rounded=0;" parent="1" target="Ioz2Z54Z-l2nRbUJ65sq-58" edge="1">
          <mxGeometry width="50" height="50" relative="1" as="geometry">
            <mxPoint x="-1111" y="220" as="sourcePoint" />
            <mxPoint x="-1101" y="210" as="targetPoint" />
          </mxGeometry>
        </mxCell>
        <mxCell id="Ioz2Z54Z-l2nRbUJ65sq-58" value="&lt;font style=&quot;font-size: 11px;&quot;&gt;Fine&lt;/font&gt;" style="ellipse;whiteSpace=wrap;html=1;" parent="1" vertex="1">
          <mxGeometry x="-1101" y="190" width="40" height="22.5" as="geometry" />
        </mxCell>
        <mxCell id="Ioz2Z54Z-l2nRbUJ65sq-59" value="&lt;font style=&quot;font-size: 11px;&quot;&gt;Partite giocate&lt;/font&gt;" style="ellipse;whiteSpace=wrap;html=1;" parent="1" vertex="1">
          <mxGeometry x="-1071" y="227.5" width="110" height="25" as="geometry" />
        </mxCell>
        <mxCell id="Ioz2Z54Z-l2nRbUJ65sq-60" value="" style="endArrow=none;html=1;rounded=0;exitX=0.5;exitY=1;exitDx=0;exitDy=0;entryX=1;entryY=0;entryDx=0;entryDy=0;" parent="1" source="Ioz2Z54Z-l2nRbUJ65sq-59" target="Ioz2Z54Z-l2nRbUJ65sq-49" edge="1">
          <mxGeometry width="50" height="50" relative="1" as="geometry">
            <mxPoint x="-1191" y="320" as="sourcePoint" />
            <mxPoint x="-1141" y="270" as="targetPoint" />
          </mxGeometry>
        </mxCell>
        <mxCell id="Ioz2Z54Z-l2nRbUJ65sq-61" value="&lt;font style=&quot;font-size: 11px;&quot;&gt;Goal segnati&lt;/font&gt;" style="ellipse;whiteSpace=wrap;html=1;" parent="1" vertex="1">
          <mxGeometry x="-1041" y="265" width="80" height="20" as="geometry" />
        </mxCell>
        <mxCell id="Ioz2Z54Z-l2nRbUJ65sq-62" value="" style="endArrow=none;html=1;rounded=0;entryX=0;entryY=0.5;entryDx=0;entryDy=0;exitX=1;exitY=0.5;exitDx=0;exitDy=0;" parent="1" source="Ioz2Z54Z-l2nRbUJ65sq-49" target="Ioz2Z54Z-l2nRbUJ65sq-61" edge="1">
          <mxGeometry width="50" height="50" relative="1" as="geometry">
            <mxPoint x="-1071" y="280" as="sourcePoint" />
            <mxPoint x="-1021" y="230" as="targetPoint" />
          </mxGeometry>
        </mxCell>
        <mxCell id="Ioz2Z54Z-l2nRbUJ65sq-63" value="" style="endArrow=none;html=1;rounded=0;exitX=0.5;exitY=0;exitDx=0;exitDy=0;" parent="1" source="Ioz2Z54Z-l2nRbUJ65sq-1" target="Ioz2Z54Z-l2nRbUJ65sq-64" edge="1">
          <mxGeometry width="50" height="50" relative="1" as="geometry">
            <mxPoint x="-1331" y="320" as="sourcePoint" />
            <mxPoint x="-1301" y="320" as="targetPoint" />
          </mxGeometry>
        </mxCell>
        <mxCell id="Ioz2Z54Z-l2nRbUJ65sq-64" value="Carriera" style="ellipse;whiteSpace=wrap;html=1;" parent="1" vertex="1">
          <mxGeometry x="-1291" y="260" width="47.5" height="30" as="geometry" />
        </mxCell>
        <mxCell id="Ioz2Z54Z-l2nRbUJ65sq-65" value="&lt;font style=&quot;font-size: 11px;&quot;&gt;Data di ritiro&lt;/font&gt;" style="ellipse;whiteSpace=wrap;html=1;" parent="1" vertex="1">
          <mxGeometry x="-1311" y="300" width="80" height="20" as="geometry" />
        </mxCell>
        <mxCell id="Ioz2Z54Z-l2nRbUJ65sq-66" value="" style="endArrow=none;html=1;rounded=0;exitX=1;exitY=0;exitDx=0;exitDy=0;entryX=0;entryY=0.5;entryDx=0;entryDy=0;" parent="1" source="Ioz2Z54Z-l2nRbUJ65sq-1" target="Ioz2Z54Z-l2nRbUJ65sq-65" edge="1">
          <mxGeometry width="50" height="50" relative="1" as="geometry">
            <mxPoint x="-1301" y="310" as="sourcePoint" />
            <mxPoint x="-1251" y="260" as="targetPoint" />
          </mxGeometry>
        </mxCell>
        <mxCell id="Ioz2Z54Z-l2nRbUJ65sq-68" value="Trofei" style="ellipse;whiteSpace=wrap;html=1;" parent="1" vertex="1">
          <mxGeometry x="-1206" y="160" width="70" height="20" as="geometry" />
        </mxCell>
        <mxCell id="Ioz2Z54Z-l2nRbUJ65sq-70" value="Trofei" style="ellipse;whiteSpace=wrap;html=1;" parent="1" vertex="1">
          <mxGeometry x="-1350" y="240" width="53.75" height="20" as="geometry" />
        </mxCell>
        <mxCell id="Ioz2Z54Z-l2nRbUJ65sq-72" value="" style="endArrow=none;html=1;rounded=0;entryX=0.5;entryY=1;entryDx=0;entryDy=0;exitX=0.5;exitY=0;exitDx=0;exitDy=0;" parent="1" source="Ioz2Z54Z-l2nRbUJ65sq-52" target="Ioz2Z54Z-l2nRbUJ65sq-68" edge="1">
          <mxGeometry width="50" height="50" relative="1" as="geometry">
            <mxPoint x="-1221" y="245" as="sourcePoint" />
            <mxPoint x="-1171" y="195" as="targetPoint" />
          </mxGeometry>
        </mxCell>
        <mxCell id="Ioz2Z54Z-l2nRbUJ65sq-73" value="" style="endArrow=none;html=1;rounded=0;entryX=1;entryY=1;entryDx=0;entryDy=0;exitX=0.5;exitY=0;exitDx=0;exitDy=0;" parent="1" source="Ioz2Z54Z-l2nRbUJ65sq-52" target="Ioz2Z54Z-l2nRbUJ65sq-38" edge="1">
          <mxGeometry width="50" height="50" relative="1" as="geometry">
            <mxPoint x="-1251" y="302.5" as="sourcePoint" />
            <mxPoint x="-1201" y="252.5" as="targetPoint" />
          </mxGeometry>
        </mxCell>
        <mxCell id="Ioz2Z54Z-l2nRbUJ65sq-74" value="" style="endArrow=none;html=1;rounded=0;entryX=1;entryY=1;entryDx=0;entryDy=0;exitX=0.5;exitY=0;exitDx=0;exitDy=0;" parent="1" source="Ioz2Z54Z-l2nRbUJ65sq-52" target="Ioz2Z54Z-l2nRbUJ65sq-36" edge="1">
          <mxGeometry width="50" height="50" relative="1" as="geometry">
            <mxPoint x="-1251" y="310" as="sourcePoint" />
            <mxPoint x="-1201" y="260" as="targetPoint" />
          </mxGeometry>
        </mxCell>
        <mxCell id="QqaYTEEhGUOZ2rIBJ_UD-2" value="" style="shape=link;html=1;rounded=0;width=3.333333333333334;exitX=0.5;exitY=1;exitDx=0;exitDy=0;entryX=0.5;entryY=0;entryDx=0;entryDy=0;" parent="1" source="QqaYTEEhGUOZ2rIBJ_UD-1" target="QqaYTEEhGUOZ2rIBJ_UD-3" edge="1">
          <mxGeometry width="100" relative="1" as="geometry">
            <mxPoint x="-1211" y="400" as="sourcePoint" />
            <mxPoint x="-1211" y="440" as="targetPoint" />
          </mxGeometry>
        </mxCell>
        <mxCell id="QqaYTEEhGUOZ2rIBJ_UD-3" value="&lt;font style=&quot;font-size: 11px;&quot;&gt;o&lt;/font&gt;" style="ellipse;whiteSpace=wrap;html=1;aspect=fixed;" parent="1" vertex="1">
          <mxGeometry x="-1218.5" y="410" width="15" height="15" as="geometry" />
        </mxCell>
        <mxCell id="QqaYTEEhGUOZ2rIBJ_UD-1" value="&lt;font style=&quot;font-size: 11px;&quot;&gt;Ruolo&lt;/font&gt;" style="whiteSpace=wrap;html=1;align=center;" parent="1" vertex="1">
          <mxGeometry x="-1232.25" y="370" width="42.5" height="20" as="geometry" />
        </mxCell>
        <mxCell id="QqaYTEEhGUOZ2rIBJ_UD-10" value="" style="endArrow=none;html=1;rounded=0;entryX=0;entryY=0.5;entryDx=0;entryDy=0;exitX=0.5;exitY=0;exitDx=0;exitDy=0;" parent="1" source="QqaYTEEhGUOZ2rIBJ_UD-11" target="QqaYTEEhGUOZ2rIBJ_UD-3" edge="1">
          <mxGeometry width="50" height="50" relative="1" as="geometry">
            <mxPoint x="-1281" y="440" as="sourcePoint" />
            <mxPoint x="-1226" y="425" as="targetPoint" />
          </mxGeometry>
        </mxCell>
        <mxCell id="QqaYTEEhGUOZ2rIBJ_UD-11" value="&lt;font style=&quot;font-size: 11px;&quot;&gt;Portiere&lt;/font&gt;" style="rounded=0;whiteSpace=wrap;html=1;" parent="1" vertex="1">
          <mxGeometry x="-1346" y="440" width="50" height="20" as="geometry" />
        </mxCell>
        <mxCell id="QqaYTEEhGUOZ2rIBJ_UD-12" value="&lt;font style=&quot;font-size: 11px;&quot;&gt;Centrocampista&lt;/font&gt;" style="rounded=0;whiteSpace=wrap;html=1;" parent="1" vertex="1">
          <mxGeometry x="-1283.5" y="440" width="75" height="20" as="geometry" />
        </mxCell>
        <mxCell id="QqaYTEEhGUOZ2rIBJ_UD-13" value="" style="endArrow=none;html=1;rounded=0;entryX=0;entryY=1;entryDx=0;entryDy=0;exitX=0.5;exitY=0;exitDx=0;exitDy=0;" parent="1" source="QqaYTEEhGUOZ2rIBJ_UD-12" target="QqaYTEEhGUOZ2rIBJ_UD-3" edge="1">
          <mxGeometry width="50" height="50" relative="1" as="geometry">
            <mxPoint x="-1231" y="470" as="sourcePoint" />
            <mxPoint x="-1181" y="420" as="targetPoint" />
          </mxGeometry>
        </mxCell>
        <mxCell id="QqaYTEEhGUOZ2rIBJ_UD-14" value="&lt;font style=&quot;font-size: 11px;&quot;&gt;Attaccante&lt;/font&gt;" style="rounded=0;whiteSpace=wrap;html=1;" parent="1" vertex="1">
          <mxGeometry x="-1203.5" y="440" width="58.75" height="20" as="geometry" />
        </mxCell>
        <mxCell id="QqaYTEEhGUOZ2rIBJ_UD-15" value="" style="endArrow=none;html=1;rounded=0;entryX=1;entryY=1;entryDx=0;entryDy=0;exitX=0.5;exitY=0;exitDx=0;exitDy=0;" parent="1" source="QqaYTEEhGUOZ2rIBJ_UD-14" target="QqaYTEEhGUOZ2rIBJ_UD-3" edge="1">
          <mxGeometry width="50" height="50" relative="1" as="geometry">
            <mxPoint x="-1231" y="470" as="sourcePoint" />
            <mxPoint x="-1181" y="420" as="targetPoint" />
          </mxGeometry>
        </mxCell>
        <mxCell id="QqaYTEEhGUOZ2rIBJ_UD-16" value="&lt;font style=&quot;font-size: 11px;&quot;&gt;Difensore&lt;/font&gt;" style="rounded=0;whiteSpace=wrap;html=1;" parent="1" vertex="1">
          <mxGeometry x="-1131" y="440" width="50" height="20" as="geometry" />
        </mxCell>
        <mxCell id="QqaYTEEhGUOZ2rIBJ_UD-17" value="" style="endArrow=none;html=1;rounded=0;entryX=1;entryY=0.5;entryDx=0;entryDy=0;exitX=0.5;exitY=0;exitDx=0;exitDy=0;" parent="1" source="QqaYTEEhGUOZ2rIBJ_UD-16" target="QqaYTEEhGUOZ2rIBJ_UD-3" edge="1">
          <mxGeometry width="50" height="50" relative="1" as="geometry">
            <mxPoint x="-1191" y="470" as="sourcePoint" />
            <mxPoint x="-1141" y="420" as="targetPoint" />
          </mxGeometry>
        </mxCell>
        <mxCell id="QqaYTEEhGUOZ2rIBJ_UD-19" value="" style="shape=requiredInterface;html=1;verticalLabelPosition=bottom;sketch=0;rotation=-195;" parent="1" vertex="1">
          <mxGeometry x="-1283.5" y="425" width="15" height="10" as="geometry" />
        </mxCell>
        <mxCell id="QqaYTEEhGUOZ2rIBJ_UD-21" value="" style="shape=requiredInterface;html=1;verticalLabelPosition=bottom;sketch=0;rotation=-215;" parent="1" vertex="1">
          <mxGeometry x="-1238.0014610773194" y="426.00077196971426" width="15" height="10" as="geometry" />
        </mxCell>
        <mxCell id="QqaYTEEhGUOZ2rIBJ_UD-24" value="" style="shape=requiredInterface;html=1;verticalLabelPosition=bottom;sketch=0;rotation=37;" parent="1" vertex="1">
          <mxGeometry x="-1201.0014610773194" y="425.00077196971426" width="15" height="10" as="geometry" />
        </mxCell>
        <mxCell id="QqaYTEEhGUOZ2rIBJ_UD-25" value="" style="shape=requiredInterface;html=1;verticalLabelPosition=bottom;sketch=0;rotation=10;" parent="1" vertex="1">
          <mxGeometry x="-1157.0014610773194" y="425.00077196971426" width="15" height="10" as="geometry" />
        </mxCell>
        <mxCell id="QqaYTEEhGUOZ2rIBJ_UD-28" value="&lt;font style=&quot;font-size: 11px;&quot;&gt;o&lt;/font&gt;" style="ellipse;whiteSpace=wrap;html=1;aspect=fixed;" parent="1" vertex="1">
          <mxGeometry x="-1492.5" y="410" width="15" height="15" as="geometry" />
        </mxCell>
        <mxCell id="QqaYTEEhGUOZ2rIBJ_UD-29" value="" style="endArrow=none;html=1;rounded=0;entryX=0.5;entryY=1;entryDx=0;entryDy=0;" parent="1" target="QqaYTEEhGUOZ2rIBJ_UD-30" edge="1">
          <mxGeometry width="50" height="50" relative="1" as="geometry">
            <mxPoint x="-1485" y="390" as="sourcePoint" />
            <mxPoint x="-1485" y="360" as="targetPoint" />
            <Array as="points" />
          </mxGeometry>
        </mxCell>
        <mxCell id="QqaYTEEhGUOZ2rIBJ_UD-30" value="&lt;span style=&quot;font-size: 11px;&quot;&gt;Caratteristiche&lt;/span&gt;" style="whiteSpace=wrap;html=1;align=center;" parent="1" vertex="1">
          <mxGeometry x="-1523.1299999999999" y="370" width="76.25" height="20" as="geometry" />
        </mxCell>
        <mxCell id="QqaYTEEhGUOZ2rIBJ_UD-31" value="" style="endArrow=none;html=1;rounded=0;entryX=0;entryY=0.5;entryDx=0;entryDy=0;exitX=0.5;exitY=0;exitDx=0;exitDy=0;" parent="1" source="QqaYTEEhGUOZ2rIBJ_UD-32" target="QqaYTEEhGUOZ2rIBJ_UD-28" edge="1">
          <mxGeometry width="50" height="50" relative="1" as="geometry">
            <mxPoint x="-1555" y="440" as="sourcePoint" />
            <mxPoint x="-1500" y="425" as="targetPoint" />
          </mxGeometry>
        </mxCell>
        <mxCell id="QqaYTEEhGUOZ2rIBJ_UD-32" value="&lt;span style=&quot;font-size: 11px;&quot;&gt;Colpo di testa&lt;/span&gt;" style="rounded=0;whiteSpace=wrap;html=1;" parent="1" vertex="1">
          <mxGeometry x="-1620" y="440" width="50" height="30" as="geometry" />
        </mxCell>
        <mxCell id="QqaYTEEhGUOZ2rIBJ_UD-33" value="&lt;span style=&quot;font-size: 11px;&quot;&gt;Tackle&lt;/span&gt;" style="rounded=0;whiteSpace=wrap;html=1;" parent="1" vertex="1">
          <mxGeometry x="-1538.5" y="440" width="37.5" height="20" as="geometry" />
        </mxCell>
        <mxCell id="QqaYTEEhGUOZ2rIBJ_UD-34" value="" style="endArrow=none;html=1;rounded=0;entryX=0;entryY=1;entryDx=0;entryDy=0;exitX=0.5;exitY=0;exitDx=0;exitDy=0;" parent="1" source="QqaYTEEhGUOZ2rIBJ_UD-33" target="QqaYTEEhGUOZ2rIBJ_UD-28" edge="1">
          <mxGeometry width="50" height="50" relative="1" as="geometry">
            <mxPoint x="-1505" y="470" as="sourcePoint" />
            <mxPoint x="-1455" y="420" as="targetPoint" />
          </mxGeometry>
        </mxCell>
        <mxCell id="QqaYTEEhGUOZ2rIBJ_UD-35" value="&lt;span style=&quot;font-size: 11px;&quot;&gt;Rovesciata&lt;/span&gt;" style="rounded=0;whiteSpace=wrap;html=1;" parent="1" vertex="1">
          <mxGeometry x="-1477.5" y="440" width="58.75" height="20" as="geometry" />
        </mxCell>
        <mxCell id="QqaYTEEhGUOZ2rIBJ_UD-36" value="" style="endArrow=none;html=1;rounded=0;entryX=1;entryY=1;entryDx=0;entryDy=0;exitX=0.5;exitY=0;exitDx=0;exitDy=0;" parent="1" source="QqaYTEEhGUOZ2rIBJ_UD-35" target="QqaYTEEhGUOZ2rIBJ_UD-28" edge="1">
          <mxGeometry width="50" height="50" relative="1" as="geometry">
            <mxPoint x="-1505" y="470" as="sourcePoint" />
            <mxPoint x="-1455" y="420" as="targetPoint" />
          </mxGeometry>
        </mxCell>
        <mxCell id="QqaYTEEhGUOZ2rIBJ_UD-37" value="&lt;span style=&quot;font-size: 11px;&quot;&gt;Cross&lt;/span&gt;" style="rounded=0;whiteSpace=wrap;html=1;" parent="1" vertex="1">
          <mxGeometry x="-1405" y="440" width="50" height="20" as="geometry" />
        </mxCell>
        <mxCell id="QqaYTEEhGUOZ2rIBJ_UD-38" value="" style="endArrow=none;html=1;rounded=0;entryX=1;entryY=0.5;entryDx=0;entryDy=0;exitX=0.5;exitY=0;exitDx=0;exitDy=0;" parent="1" source="QqaYTEEhGUOZ2rIBJ_UD-37" target="QqaYTEEhGUOZ2rIBJ_UD-28" edge="1">
          <mxGeometry width="50" height="50" relative="1" as="geometry">
            <mxPoint x="-1465" y="470" as="sourcePoint" />
            <mxPoint x="-1415" y="420" as="targetPoint" />
          </mxGeometry>
        </mxCell>
        <mxCell id="QqaYTEEhGUOZ2rIBJ_UD-39" value="" style="shape=requiredInterface;html=1;verticalLabelPosition=bottom;sketch=0;rotation=-195;" parent="1" vertex="1">
          <mxGeometry x="-1557.5" y="425" width="15" height="10" as="geometry" />
        </mxCell>
        <mxCell id="QqaYTEEhGUOZ2rIBJ_UD-40" value="" style="shape=requiredInterface;html=1;verticalLabelPosition=bottom;sketch=0;rotation=-215;" parent="1" vertex="1">
          <mxGeometry x="-1512.0014610773194" y="426.00077196971426" width="15" height="10" as="geometry" />
        </mxCell>
        <mxCell id="QqaYTEEhGUOZ2rIBJ_UD-41" value="" style="shape=requiredInterface;html=1;verticalLabelPosition=bottom;sketch=0;rotation=37;" parent="1" vertex="1">
          <mxGeometry x="-1475.0014610773194" y="425.00077196971426" width="15" height="10" as="geometry" />
        </mxCell>
        <mxCell id="QqaYTEEhGUOZ2rIBJ_UD-42" value="" style="shape=requiredInterface;html=1;verticalLabelPosition=bottom;sketch=0;rotation=10;" parent="1" vertex="1">
          <mxGeometry x="-1431.0014610773194" y="425.00077196971426" width="15" height="10" as="geometry" />
        </mxCell>
        <mxCell id="QqaYTEEhGUOZ2rIBJ_UD-43" value="" style="endArrow=none;html=1;rounded=0;entryX=0.5;entryY=1;entryDx=0;entryDy=0;" parent="1" target="Ioz2Z54Z-l2nRbUJ65sq-70" edge="1">
          <mxGeometry width="50" height="50" relative="1" as="geometry">
            <mxPoint x="-1361" y="310" as="sourcePoint" />
            <mxPoint x="-1311" y="265" as="targetPoint" />
          </mxGeometry>
        </mxCell>
        <mxCell id="QqaYTEEhGUOZ2rIBJ_UD-44" value="" style="endArrow=none;html=1;rounded=0;entryX=0.5;entryY=1;entryDx=0;entryDy=0;exitX=0.5;exitY=0;exitDx=0;exitDy=0;" parent="1" source="QqaYTEEhGUOZ2rIBJ_UD-30" target="Ioz2Z54Z-l2nRbUJ65sq-1" edge="1">
          <mxGeometry width="50" height="50" relative="1" as="geometry">
            <mxPoint x="-1490" y="430" as="sourcePoint" />
            <mxPoint x="-1440" y="380" as="targetPoint" />
            <Array as="points" />
          </mxGeometry>
        </mxCell>
        <mxCell id="QqaYTEEhGUOZ2rIBJ_UD-46" value="" style="endArrow=none;html=1;rounded=0;entryX=0.5;entryY=1;entryDx=0;entryDy=0;exitX=0.5;exitY=0;exitDx=0;exitDy=0;" parent="1" source="QqaYTEEhGUOZ2rIBJ_UD-28" target="QqaYTEEhGUOZ2rIBJ_UD-30" edge="1">
          <mxGeometry width="50" height="50" relative="1" as="geometry">
            <mxPoint x="-1450" y="440" as="sourcePoint" />
            <mxPoint x="-1400" y="390" as="targetPoint" />
          </mxGeometry>
        </mxCell>
      </root>
    </mxGraphModel>
  </diagram>
  <diagram id="Ox5QE_U3D6sNzb127xeb" name="Pagina-2">
    <mxGraphModel dx="1104" dy="516" grid="1" gridSize="10" guides="1" tooltips="1" connect="1" arrows="1" fold="1" page="0" pageScale="1" pageWidth="827" pageHeight="1169" math="0" shadow="0">
      <root>
        <mxCell id="0" />
        <mxCell id="1" parent="0" />
        <mxCell id="dMykt4nufXN3NpEl5q4q-2" value="Giocatore" style="swimlane;fontStyle=1;align=center;verticalAlign=top;childLayout=stackLayout;horizontal=1;startSize=26;horizontalStack=0;resizeParent=1;resizeParentMax=0;resizeLast=0;collapsible=1;marginBottom=0;whiteSpace=wrap;html=1;" parent="1" vertex="1">
          <mxGeometry x="320" y="110" width="310" height="300" as="geometry" />
        </mxCell>
        <mxCell id="dMykt4nufXN3NpEl5q4q-3" value="+ nome: String&lt;br&gt;+ cognome: String&lt;br&gt;+ data_nascita: Data&lt;br&gt;+ piede: String&lt;br&gt;+ trofei: int&lt;br&gt;+ data_ritiro: Data&lt;br&gt;+ ruolo: Ruolo&lt;br&gt;+ caratteristiche: Caratteristiche&lt;br&gt;+ login: String&lt;br&gt;+ password: String" style="text;strokeColor=none;fillColor=none;align=left;verticalAlign=top;spacingLeft=4;spacingRight=4;overflow=hidden;rotatable=0;points=[[0,0.5],[1,0.5]];portConstraint=eastwest;whiteSpace=wrap;html=1;" parent="dMykt4nufXN3NpEl5q4q-2" vertex="1">
          <mxGeometry y="26" width="310" height="164" as="geometry" />
        </mxCell>
        <mxCell id="dMykt4nufXN3NpEl5q4q-4" value="" style="line;strokeWidth=1;fillColor=none;align=left;verticalAlign=middle;spacingTop=-1;spacingLeft=3;spacingRight=3;rotatable=0;labelPosition=right;points=[];portConstraint=eastwest;strokeColor=inherit;" parent="dMykt4nufXN3NpEl5q4q-2" vertex="1">
          <mxGeometry y="190" width="310" height="8" as="geometry" />
        </mxCell>
        <mxCell id="dMykt4nufXN3NpEl5q4q-5" value="+ aggiungiPeriodoDiMilitanza{Militanza periodo}: void&lt;br&gt;+ rimuoviPeriodoDiMilitanza{Militanza periodo}: void&lt;br&gt;+ getPeriodiDiMilitanza{}:&amp;nbsp;List&amp;lt;Militanza&amp;gt;&lt;br&gt;+ aggiungiTrofeo{int trofei}: int&lt;br&gt;+ rimuoviTrofeo{int trofei}: int&lt;br&gt;+ getTrofei{}: int&amp;nbsp;" style="text;strokeColor=none;fillColor=none;align=left;verticalAlign=top;spacingLeft=4;spacingRight=4;overflow=hidden;rotatable=0;points=[[0,0.5],[1,0.5]];portConstraint=eastwest;whiteSpace=wrap;html=1;" parent="dMykt4nufXN3NpEl5q4q-2" vertex="1">
          <mxGeometry y="198" width="310" height="102" as="geometry" />
        </mxCell>
        <mxCell id="dMykt4nufXN3NpEl5q4q-6" value="Squadra" style="swimlane;fontStyle=1;align=center;verticalAlign=top;childLayout=stackLayout;horizontal=1;startSize=26;horizontalStack=0;resizeParent=1;resizeParentMax=0;resizeLast=0;collapsible=1;marginBottom=0;whiteSpace=wrap;html=1;" parent="1" vertex="1">
          <mxGeometry x="1090" y="165" width="160" height="100" as="geometry" />
        </mxCell>
        <mxCell id="dMykt4nufXN3NpEl5q4q-7" value="+ nome: String&lt;br&gt;+ nazionalitÃ : String&lt;br&gt;+ trofei: int" style="text;strokeColor=none;fillColor=none;align=left;verticalAlign=top;spacingLeft=4;spacingRight=4;overflow=hidden;rotatable=0;points=[[0,0.5],[1,0.5]];portConstraint=eastwest;whiteSpace=wrap;html=1;" parent="dMykt4nufXN3NpEl5q4q-6" vertex="1">
          <mxGeometry y="26" width="160" height="54" as="geometry" />
        </mxCell>
        <mxCell id="dMykt4nufXN3NpEl5q4q-8" value="" style="line;strokeWidth=1;fillColor=none;align=left;verticalAlign=middle;spacingTop=-1;spacingLeft=3;spacingRight=3;rotatable=0;labelPosition=right;points=[];portConstraint=eastwest;strokeColor=inherit;" parent="dMykt4nufXN3NpEl5q4q-6" vertex="1">
          <mxGeometry y="80" width="160" height="20" as="geometry" />
        </mxCell>
        <mxCell id="b_CRJETQAGFZr5FlbAKz-1" value="Ruolo" style="swimlane;fontStyle=1;align=center;verticalAlign=top;childLayout=stackLayout;horizontal=1;startSize=26;horizontalStack=0;resizeParent=1;resizeParentMax=0;resizeLast=0;collapsible=1;marginBottom=0;whiteSpace=wrap;html=1;" parent="1" vertex="1">
          <mxGeometry x="1100" y="700" width="160" height="140" as="geometry" />
        </mxCell>
        <mxCell id="b_CRJETQAGFZr5FlbAKz-2" value="+ portiere: Boolean&lt;br&gt;+ attaccante: Boolean&lt;br&gt;+ difensore: Boolean&lt;br&gt;+ centrocampista: Boolean" style="text;strokeColor=none;fillColor=none;align=left;verticalAlign=top;spacingLeft=4;spacingRight=4;overflow=hidden;rotatable=0;points=[[0,0.5],[1,0.5]];portConstraint=eastwest;whiteSpace=wrap;html=1;" parent="b_CRJETQAGFZr5FlbAKz-1" vertex="1">
          <mxGeometry y="26" width="160" height="74" as="geometry" />
        </mxCell>
        <mxCell id="b_CRJETQAGFZr5FlbAKz-3" value="" style="line;strokeWidth=1;fillColor=none;align=left;verticalAlign=middle;spacingTop=-1;spacingLeft=3;spacingRight=3;rotatable=0;labelPosition=right;points=[];portConstraint=eastwest;strokeColor=inherit;" parent="b_CRJETQAGFZr5FlbAKz-1" vertex="1">
          <mxGeometry y="100" width="160" height="8" as="geometry" />
        </mxCell>
        <mxCell id="b_CRJETQAGFZr5FlbAKz-4" value="+ method(type): type" style="text;strokeColor=none;fillColor=none;align=left;verticalAlign=top;spacingLeft=4;spacingRight=4;overflow=hidden;rotatable=0;points=[[0,0.5],[1,0.5]];portConstraint=eastwest;whiteSpace=wrap;html=1;" parent="b_CRJETQAGFZr5FlbAKz-1" vertex="1">
          <mxGeometry y="108" width="160" height="32" as="geometry" />
        </mxCell>
        <mxCell id="U8_CyG04B_1zgafdxqHa-1" value="Caratteristiche" style="swimlane;fontStyle=1;align=center;verticalAlign=top;childLayout=stackLayout;horizontal=1;startSize=26;horizontalStack=0;resizeParent=1;resizeParentMax=0;resizeLast=0;collapsible=1;marginBottom=0;whiteSpace=wrap;html=1;" parent="1" vertex="1">
          <mxGeometry x="1100" y="520" width="160" height="124" as="geometry" />
        </mxCell>
        <mxCell id="U8_CyG04B_1zgafdxqHa-2" value="+ colpo_testa:&amp;nbsp; Boolean&lt;br&gt;+ tackle: Boolean&lt;br&gt;+ rovesciata: Boolean&lt;br&gt;+ cross: Boolean&amp;nbsp;" style="text;strokeColor=none;fillColor=none;align=left;verticalAlign=top;spacingLeft=4;spacingRight=4;overflow=hidden;rotatable=0;points=[[0,0.5],[1,0.5]];portConstraint=eastwest;whiteSpace=wrap;html=1;" parent="U8_CyG04B_1zgafdxqHa-1" vertex="1">
          <mxGeometry y="26" width="160" height="64" as="geometry" />
        </mxCell>
        <mxCell id="U8_CyG04B_1zgafdxqHa-3" value="" style="line;strokeWidth=1;fillColor=none;align=left;verticalAlign=middle;spacingTop=-1;spacingLeft=3;spacingRight=3;rotatable=0;labelPosition=right;points=[];portConstraint=eastwest;strokeColor=inherit;" parent="U8_CyG04B_1zgafdxqHa-1" vertex="1">
          <mxGeometry y="90" width="160" height="8" as="geometry" />
        </mxCell>
        <mxCell id="U8_CyG04B_1zgafdxqHa-4" value="+ method(type): type" style="text;strokeColor=none;fillColor=none;align=left;verticalAlign=top;spacingLeft=4;spacingRight=4;overflow=hidden;rotatable=0;points=[[0,0.5],[1,0.5]];portConstraint=eastwest;whiteSpace=wrap;html=1;" parent="U8_CyG04B_1zgafdxqHa-1" vertex="1">
          <mxGeometry y="98" width="160" height="26" as="geometry" />
        </mxCell>
        <mxCell id="sUhri-EgjcJns4cZWBfm-1" value="Militanza" style="swimlane;fontStyle=1;align=center;verticalAlign=top;childLayout=stackLayout;horizontal=1;startSize=26;horizontalStack=0;resizeParent=1;resizeParentMax=0;resizeLast=0;collapsible=1;marginBottom=0;whiteSpace=wrap;html=1;" parent="1" vertex="1">
          <mxGeometry x="800" y="145" width="160" height="150" as="geometry" />
        </mxCell>
        <mxCell id="sUhri-EgjcJns4cZWBfm-2" value="+ data_Inizio: Data&lt;br&gt;+ data_Fine:&amp;nbsp; Data&lt;br&gt;+ squadra: Squadra&lt;br&gt;+ partite_giocate: int&amp;nbsp;&lt;br&gt;+ goal_subiti: int&amp;nbsp;&lt;br&gt;+ goal_segnati: int&amp;nbsp;" style="text;strokeColor=none;fillColor=none;align=left;verticalAlign=top;spacingLeft=4;spacingRight=4;overflow=hidden;rotatable=0;points=[[0,0.5],[1,0.5]];portConstraint=eastwest;whiteSpace=wrap;html=1;" parent="sUhri-EgjcJns4cZWBfm-1" vertex="1">
          <mxGeometry y="26" width="160" height="94" as="geometry" />
        </mxCell>
        <mxCell id="sUhri-EgjcJns4cZWBfm-3" value="" style="line;strokeWidth=1;fillColor=none;align=left;verticalAlign=middle;spacingTop=-1;spacingLeft=3;spacingRight=3;rotatable=0;labelPosition=right;points=[];portConstraint=eastwest;strokeColor=inherit;" parent="sUhri-EgjcJns4cZWBfm-1" vertex="1">
          <mxGeometry y="120" width="160" height="30" as="geometry" />
        </mxCell>
        <mxCell id="Xv77zPXqaaQUrEmeaVlW-9" value="" style="endArrow=none;html=1;rounded=0;exitX=1;exitY=0.5;exitDx=0;exitDy=0;entryX=0;entryY=0.5;entryDx=0;entryDy=0;" parent="1" source="dMykt4nufXN3NpEl5q4q-3" target="sUhri-EgjcJns4cZWBfm-2" edge="1">
          <mxGeometry width="50" height="50" relative="1" as="geometry">
            <mxPoint x="580" y="213" as="sourcePoint" />
            <mxPoint x="630" y="163" as="targetPoint" />
          </mxGeometry>
        </mxCell>
        <mxCell id="X7x6JAapx-SUzbomCvPs-1" value="Amministratore" style="swimlane;fontStyle=1;align=center;verticalAlign=top;childLayout=stackLayout;horizontal=1;startSize=26;horizontalStack=0;resizeParent=1;resizeParentMax=0;resizeLast=0;collapsible=1;marginBottom=0;whiteSpace=wrap;html=1;" parent="1" vertex="1">
          <mxGeometry x="30" y="700" width="450" height="160" as="geometry" />
        </mxCell>
        <mxCell id="X7x6JAapx-SUzbomCvPs-2" value="+ login: String&lt;br&gt;+ password: String" style="text;strokeColor=none;fillColor=none;align=left;verticalAlign=top;spacingLeft=4;spacingRight=4;overflow=hidden;rotatable=0;points=[[0,0.5],[1,0.5]];portConstraint=eastwest;whiteSpace=wrap;html=1;" parent="X7x6JAapx-SUzbomCvPs-1" vertex="1">
          <mxGeometry y="26" width="450" height="44" as="geometry" />
        </mxCell>
        <mxCell id="X7x6JAapx-SUzbomCvPs-3" value="" style="line;strokeWidth=1;fillColor=none;align=left;verticalAlign=middle;spacingTop=-1;spacingLeft=3;spacingRight=3;rotatable=0;labelPosition=right;points=[];portConstraint=eastwest;strokeColor=inherit;" parent="X7x6JAapx-SUzbomCvPs-1" vertex="1">
          <mxGeometry y="70" width="450" height="8" as="geometry" />
        </mxCell>
        <mxCell id="X7x6JAapx-SUzbomCvPs-4" value="+ verificaCredenziali{String login, String password}: Boolean&lt;br&gt;+ inserisciGiocatore{Giocatore nuovoGiocatore}: void&lt;br&gt;+ modificaGiocatore{Giocatore giocatore, String informazioniAggiuntive}: void&lt;br&gt;+ eliminaGiocatore{Giocatore giocatoreDaEliminare}: void" style="text;strokeColor=none;fillColor=none;align=left;verticalAlign=top;spacingLeft=4;spacingRight=4;overflow=hidden;rotatable=0;points=[[0,0.5],[1,0.5]];portConstraint=eastwest;whiteSpace=wrap;html=1;" parent="X7x6JAapx-SUzbomCvPs-1" vertex="1">
          <mxGeometry y="78" width="450" height="82" as="geometry" />
        </mxCell>
        <mxCell id="X7x6JAapx-SUzbomCvPs-5" value="UtenteGenerico" style="swimlane;fontStyle=1;align=center;verticalAlign=top;childLayout=stackLayout;horizontal=1;startSize=26;horizontalStack=0;resizeParent=1;resizeParentMax=0;resizeLast=0;collapsible=1;marginBottom=0;whiteSpace=wrap;html=1;" parent="1" vertex="1">
          <mxGeometry x="520" y="700" width="500" height="170" as="geometry" />
        </mxCell>
        <mxCell id="X7x6JAapx-SUzbomCvPs-7" value="" style="line;strokeWidth=1;fillColor=none;align=left;verticalAlign=middle;spacingTop=-1;spacingLeft=3;spacingRight=3;rotatable=0;labelPosition=right;points=[];portConstraint=eastwest;strokeColor=inherit;" parent="X7x6JAapx-SUzbomCvPs-5" vertex="1">
          <mxGeometry y="26" width="500" height="44" as="geometry" />
        </mxCell>
        <mxCell id="X7x6JAapx-SUzbomCvPs-8" value="+ visualizzaElencoGiocatori{List&amp;lt;Giocatore&amp;gt; listaGiocatori}: void&lt;br&gt;+ cercaGiocatoriPerNome{List&amp;lt;Giocatore&amp;gt; listaGiocatori, String nome}: List&amp;lt;Giocatore&amp;gt;&lt;br&gt;+ filtraGiocatoriPerRuolo{List&amp;lt;Giocatore&amp;gt; listaGiocatori, String ruolo}: List&amp;lt;Giocatore&amp;gt;&lt;br&gt;+ filtraGiocatoriPerSquadra{List&amp;lt;Giocatore&amp;gt; listaGiocatori, String squadra}: List&amp;lt;Giocatore&amp;gt;&lt;br&gt;+ filtraGiocatoriPerPiede{List&amp;lt;Giocatore&amp;gt; listaGiocatori, String piede}: List&amp;lt;Giocatore&amp;gt;" style="text;strokeColor=none;fillColor=none;align=left;verticalAlign=top;spacingLeft=4;spacingRight=4;overflow=hidden;rotatable=0;points=[[0,0.5],[1,0.5]];portConstraint=eastwest;whiteSpace=wrap;html=1;" parent="X7x6JAapx-SUzbomCvPs-5" vertex="1">
          <mxGeometry y="70" width="500" height="100" as="geometry" />
        </mxCell>
        <mxCell id="X7x6JAapx-SUzbomCvPs-9" value="Allenatore" style="swimlane;fontStyle=1;align=center;verticalAlign=top;childLayout=stackLayout;horizontal=1;startSize=26;horizontalStack=0;resizeParent=1;resizeParentMax=0;resizeLast=0;collapsible=1;marginBottom=0;whiteSpace=wrap;html=1;" parent="1" vertex="1">
          <mxGeometry x="30" y="520" width="420" height="140" as="geometry" />
        </mxCell>
        <mxCell id="X7x6JAapx-SUzbomCvPs-10" value="" style="line;strokeWidth=1;fillColor=none;align=left;verticalAlign=middle;spacingTop=-1;spacingLeft=3;spacingRight=3;rotatable=0;labelPosition=right;points=[];portConstraint=eastwest;strokeColor=inherit;" parent="X7x6JAapx-SUzbomCvPs-9" vertex="1">
          <mxGeometry y="26" width="420" height="64" as="geometry" />
        </mxCell>
        <mxCell id="X7x6JAapx-SUzbomCvPs-11" value="+ visualizzaGiocatoriAllenati{List&amp;lt;Giocatore&amp;gt; giocatoriAllenati}: void&lt;br&gt;+ registraSessioneAllenamento{SessioneAllenamento nuovaSessione}: void" style="text;strokeColor=none;fillColor=none;align=left;verticalAlign=top;spacingLeft=4;spacingRight=4;overflow=hidden;rotatable=0;points=[[0,0.5],[1,0.5]];portConstraint=eastwest;whiteSpace=wrap;html=1;" parent="X7x6JAapx-SUzbomCvPs-9" vertex="1">
          <mxGeometry y="90" width="420" height="50" as="geometry" />
        </mxCell>
        <mxCell id="X7x6JAapx-SUzbomCvPs-15" value="Dirigente" style="swimlane;fontStyle=1;align=center;verticalAlign=top;childLayout=stackLayout;horizontal=1;startSize=26;horizontalStack=0;resizeParent=1;resizeParentMax=0;resizeLast=0;collapsible=1;marginBottom=0;whiteSpace=wrap;html=1;" parent="1" vertex="1">
          <mxGeometry x="480" y="520" width="510" height="140" as="geometry" />
        </mxCell>
        <mxCell id="X7x6JAapx-SUzbomCvPs-16" value="" style="line;strokeWidth=1;fillColor=none;align=left;verticalAlign=middle;spacingTop=-1;spacingLeft=3;spacingRight=3;rotatable=0;labelPosition=right;points=[];portConstraint=eastwest;strokeColor=inherit;" parent="X7x6JAapx-SUzbomCvPs-15" vertex="1">
          <mxGeometry y="26" width="510" height="64" as="geometry" />
        </mxCell>
        <mxCell id="X7x6JAapx-SUzbomCvPs-17" value="+ gestisciTrattativaTrasferimento{Giocatore giocatore, Squadra squadraDestinazione}: void&lt;br&gt;+ visualizzaTrofeiSquadra{int trofei}: void" style="text;strokeColor=none;fillColor=none;align=left;verticalAlign=top;spacingLeft=4;spacingRight=4;overflow=hidden;rotatable=0;points=[[0,0.5],[1,0.5]];portConstraint=eastwest;whiteSpace=wrap;html=1;" parent="X7x6JAapx-SUzbomCvPs-15" vertex="1">
          <mxGeometry y="90" width="510" height="50" as="geometry" />
        </mxCell>
        <mxCell id="X7x6JAapx-SUzbomCvPs-20" value="" style="endArrow=classic;html=1;rounded=0;exitX=0.5;exitY=0;exitDx=0;exitDy=0;" parent="1" source="X7x6JAapx-SUzbomCvPs-9" edge="1">
          <mxGeometry width="50" height="50" relative="1" as="geometry">
            <mxPoint x="230" y="480" as="sourcePoint" />
            <mxPoint x="400" y="420" as="targetPoint" />
          </mxGeometry>
        </mxCell>
        <mxCell id="X7x6JAapx-SUzbomCvPs-22" value="" style="endArrow=classic;html=1;rounded=0;exitX=0.5;exitY=0;exitDx=0;exitDy=0;" parent="1" source="X7x6JAapx-SUzbomCvPs-15" edge="1">
          <mxGeometry width="50" height="50" relative="1" as="geometry">
            <mxPoint x="680" y="490" as="sourcePoint" />
            <mxPoint x="560" y="420" as="targetPoint" />
          </mxGeometry>
        </mxCell>
        <mxCell id="X7x6JAapx-SUzbomCvPs-24" value="" style="endArrow=none;html=1;rounded=0;exitX=1;exitY=0.5;exitDx=0;exitDy=0;entryX=0;entryY=0.5;entryDx=0;entryDy=0;" parent="1" source="sUhri-EgjcJns4cZWBfm-2" target="dMykt4nufXN3NpEl5q4q-7" edge="1">
          <mxGeometry width="50" height="50" relative="1" as="geometry">
            <mxPoint x="990" y="220" as="sourcePoint" />
            <mxPoint x="1040" y="170" as="targetPoint" />
          </mxGeometry>
        </mxCell>
      </root>
    </mxGraphModel>
  </diagram>
</mxfile>
